<svg width="885" height="826" viewBox="0 0 885 826" fill="none" xmlns="http://www.w3.org/2000/svg">
<path opacity="0.89" d="M1168.48 -340.861C1168.48 -340.861 1099.33 -396.244 1054.27 -354.8C984.169 -290.325 1080.46 -191.996 1037.9 -110.272C986.546 -11.6497 1001.62 -108.503 959.418 -29.3932C914.122 55.5253 932.63 55.3099 824.646 66.2545C611.307 87.8772 657.929 258.788 564.109 341.691C502.519 396.115 434.013 392.928 429.312 464.002C424.51 536.607 414.076 574.909 366.684 622.94C282.259 708.503 194.278 750.031 139.087 805.186C64.2131 880.012 221.966 896.72 67.1438 1051.44C-72.6166 1191.11 50.5978 1292.92 50.5978 1292.92L357.34 1599.86C357.34 1599.86 528.058 1541.76 609.163 1459.06C718.935 1347.12 614.011 1182.12 746.669 1106.38C810.235 1070.09 851.082 1103.11 916.256 1072.52C1069.47 1000.61 1025.73 808.446 1165.63 702.763C1248.65 640.046 1318.14 658.709 1397.92 591.161C1463.98 535.231 1362.3 349.082 1488.87 386.186C1546.53 403.087 1489.4 243.075 1552.27 215.199C1612.54 188.473 1706.63 197.63 1706.63 197.63L1168.48 -340.861Z" fill="url(#paint0_linear_208_2885)" fill-opacity="0.8"/>
<defs>
<linearGradient id="paint0_linear_208_2885" x1="1259" y1="1112" x2="465.326" y2="180.936" gradientUnits="userSpaceOnUse">
<stop stop-color="#A05DF6"/>
<stop offset="0.208333" stop-color="#986AF5"/>
<stop offset="1" stop-color="#2AC5DD"/>
</linearGradient>
</defs>
</svg>
