<svg width="19" height="24" viewBox="0 0 19 24" fill="none" xmlns="http://www.w3.org/2000/svg">
<path d="M12.5073 2.93262H2.42267V20.8608H15.8688V6.29415H12.5073V2.93262ZM2.42267 0.691589H13.6278L18.1098 5.17364V20.8608C18.1098 21.4552 17.8737 22.0252 17.4535 22.4455C17.0332 22.8657 16.4632 23.1018 15.8688 23.1018H2.42267C1.82831 23.1018 1.2583 22.8657 0.838022 22.4455C0.417748 22.0252 0.181641 21.4552 0.181641 20.8608V2.93262C0.181641 2.33826 0.417748 1.76824 0.838022 1.34797C1.2583 0.927697 1.82831 0.691589 2.42267 0.691589ZM4.66369 10.7762H13.6278V13.0172H4.66369V10.7762ZM4.66369 15.2583H13.6278V17.4993H4.66369V15.2583Z" fill="#555555"/>
</svg>
