<svg width="233" height="156" viewBox="0 0 233 156" fill="none" xmlns="http://www.w3.org/2000/svg">
<g clip-path="url(#clip0_909_33634)">
<path d="M191.225 93.3978C191.379 93.3519 191.536 93.3182 191.696 93.2971L198.057 80.3707L196.115 77.4591L200.126 73.9536L205.169 80.1239L194.899 95.0697C195.152 95.635 195.226 96.2637 195.113 96.8724C195 97.4811 194.704 98.0408 194.264 98.4771C193.825 98.9135 193.263 99.2057 192.654 99.3151C192.044 99.4244 191.416 99.3456 190.853 99.0892C190.289 98.8328 189.817 98.4108 189.499 97.8795C189.181 97.3483 189.033 96.7328 189.073 96.1149C189.113 95.4971 189.341 94.9062 189.725 94.4209C190.11 93.9355 190.633 93.5787 191.225 93.3978Z" fill="#A0616A"/>
<path d="M202.083 75.7392C201.996 75.8305 201.897 75.9089 201.788 75.9719L195.279 79.7452C195.122 79.8359 194.949 79.8931 194.769 79.9133C194.589 79.9335 194.407 79.9162 194.235 79.8625C194.062 79.8088 193.902 79.7198 193.766 79.6012C193.629 79.4826 193.519 79.337 193.442 79.1735L190.276 72.4854C190.141 72.2039 190.112 71.8834 190.194 71.5824C190.276 71.2813 190.464 71.0198 190.722 70.8455L194.757 68.1007C195.009 67.9295 195.313 67.8515 195.616 67.8804C195.92 67.9092 196.203 68.043 196.418 68.2587L202.058 73.9181C202.298 74.159 202.435 74.4837 202.439 74.8236C202.444 75.1635 202.316 75.4919 202.083 75.7392Z" fill="#CCCCCC"/>
<path d="M211.222 149.809L207.785 150.744L202.543 137.934L207.615 136.554L211.222 149.809Z" fill="#A0616A"/>
<path d="M205.064 150.43L211.691 148.627L212.827 152.8L202.026 155.738C201.877 155.19 201.837 154.618 201.909 154.055C201.981 153.492 202.163 152.948 202.445 152.455C202.727 151.962 203.104 151.53 203.553 151.182C204.002 150.835 204.516 150.579 205.064 150.43Z" fill="#2F2E41"/>
<path d="M181.842 152.431L178.28 152.431L176.586 138.694L181.842 138.694L181.842 152.431Z" fill="#A0616A"/>
<path d="M175.739 151.414H182.607V155.738H171.414C171.414 155.17 171.526 154.608 171.743 154.083C171.961 153.559 172.279 153.082 172.681 152.68C173.082 152.279 173.559 151.96 174.084 151.743C174.608 151.525 175.171 151.414 175.739 151.414Z" fill="#2F2E41"/>
<path d="M185.596 63.5406C189.537 63.5406 192.731 60.3461 192.731 56.4056C192.731 52.465 189.537 49.2705 185.596 49.2705C181.655 49.2705 178.461 52.465 178.461 56.4056C178.461 60.3461 181.655 63.5406 185.596 63.5406Z" fill="#A0616A"/>
<path d="M181.625 142.637H176.758C176.425 142.636 176.105 142.509 175.863 142.282C175.62 142.054 175.473 141.742 175.452 141.41C174.002 118.356 174.85 101.818 178.122 89.3657C178.136 89.3113 178.154 89.2577 178.175 89.2054L178.435 88.5538C178.531 88.3107 178.699 88.1023 178.915 87.9557C179.132 87.809 179.388 87.7311 179.649 87.7319H189.657C189.846 87.7318 190.032 87.7725 190.204 87.8513C190.375 87.9301 190.527 88.0451 190.65 88.1884L192.009 89.7745C192.036 89.8055 192.061 89.837 192.085 89.8702C198.215 98.4184 203.708 115.131 210.07 137.593C210.164 137.92 210.127 138.27 209.966 138.57C209.806 138.869 209.535 139.094 209.211 139.196L203.98 140.87C203.68 140.964 203.356 140.948 203.067 140.824C202.777 140.699 202.542 140.475 202.404 140.192L188.831 112.041C188.736 111.844 188.581 111.683 188.387 111.582C188.194 111.48 187.973 111.444 187.757 111.478C187.541 111.512 187.342 111.615 187.189 111.771C187.036 111.927 186.938 112.128 186.908 112.344L182.92 141.507C182.876 141.819 182.721 142.106 182.483 142.313C182.245 142.521 181.941 142.636 181.625 142.637Z" fill="#2F2E41"/>
<path d="M191.463 89.8906C191.449 89.8906 191.436 89.8903 191.422 89.89L179.265 89.5062C178.952 89.4974 178.653 89.3766 178.422 89.1657C178.192 88.9548 178.044 88.668 178.007 88.3575C176.466 75.8829 180.693 72.541 182.581 71.6834C182.739 71.6121 182.876 71.5013 182.978 71.3617C183.081 71.2221 183.145 71.0584 183.166 70.8865L183.329 69.5789C183.357 69.348 183.446 69.1288 183.588 68.944C186.549 65.1079 190.593 63.8795 192.739 63.4888C192.913 63.4576 193.092 63.462 193.264 63.5019C193.437 63.5417 193.599 63.6162 193.742 63.7208C193.885 63.8254 194.005 63.9579 194.094 64.1103C194.184 64.2627 194.242 64.4317 194.265 64.6072L194.51 66.4847C194.535 66.6637 194.606 66.8332 194.717 66.976C200.893 75.0497 194.013 86.9705 192.571 89.2781C192.453 89.4654 192.289 89.6199 192.096 89.727C191.902 89.8341 191.684 89.8904 191.463 89.8906Z" fill="#CCCCCC"/>
<path d="M199.993 57.2088C198.401 54.9676 196.493 52.9694 194.327 51.2766C192.526 49.8702 190.522 48.6686 188.311 48.0938C186.099 47.519 183.657 47.6168 181.64 48.6891C179.622 49.7613 177.536 51.8917 177.523 54.1765C177.52 54.9105 177.706 55.9035 178.429 55.7765L178.638 55.8043C180.382 55.4521 182.126 55.0999 183.869 54.7477C184.612 57.325 185.355 59.9023 186.097 62.4797C186.254 63.0228 186.464 63.6303 186.979 63.8619C187.465 64.0801 188.026 63.8745 188.518 63.6694C188.599 63.6356 189.293 62.077 189.293 62.077C189.31 62.0283 189.34 61.9851 189.38 61.9519C189.42 61.9187 189.468 61.8967 189.519 61.8882C189.57 61.8796 189.622 61.8848 189.67 61.9033C189.719 61.9218 189.761 61.9528 189.793 61.9932L190.206 62.5087C190.285 62.6072 190.393 62.6774 190.516 62.7087C190.638 62.7399 190.767 62.7305 190.883 62.6819C193.727 61.4949 196.571 60.3078 199.414 59.1208C199.807 58.9567 200.246 58.7425 200.36 58.3321C200.47 57.939 200.229 57.5415 199.993 57.2088Z" fill="#2F2E41"/>
<path d="M232.677 156H145.236C145.159 156 145.085 155.969 145.03 155.915C144.976 155.86 144.945 155.786 144.945 155.709C144.945 155.632 144.976 155.559 145.03 155.504C145.085 155.45 145.159 155.419 145.236 155.419H232.677C232.754 155.419 232.828 155.45 232.883 155.504C232.937 155.559 232.968 155.632 232.968 155.709C232.968 155.786 232.937 155.86 232.883 155.915C232.828 155.969 232.754 156 232.677 156Z" fill="#3F3D56"/>
<path d="M185.271 110.729C185.073 110.728 184.881 110.665 184.722 110.547L183.4 109.587C183.29 109.507 183.158 109.463 183.022 109.463C182.886 109.463 182.753 109.507 182.644 109.587L181.321 110.547C181.162 110.663 180.97 110.726 180.773 110.726C180.576 110.726 180.384 110.663 180.224 110.547C180.065 110.432 179.946 110.268 179.885 110.081C179.824 109.893 179.824 109.691 179.885 109.504L180.39 107.949C180.432 107.82 180.432 107.681 180.39 107.552C180.348 107.423 180.266 107.31 180.156 107.23L178.834 106.27C178.675 106.154 178.556 105.99 178.495 105.803C178.434 105.615 178.434 105.413 178.495 105.226C178.556 105.038 178.675 104.875 178.834 104.759C178.994 104.643 179.186 104.581 179.383 104.581H181.017C181.153 104.581 181.285 104.538 181.395 104.458C181.505 104.379 181.587 104.266 181.629 104.137L182.134 102.582C182.195 102.395 182.313 102.231 182.473 102.115C182.632 101.999 182.825 101.937 183.022 101.937C183.219 101.937 183.411 101.999 183.57 102.115C183.73 102.231 183.849 102.395 183.909 102.582L184.415 104.137C184.456 104.266 184.538 104.379 184.648 104.458C184.758 104.538 184.89 104.581 185.026 104.581H186.661C186.858 104.581 187.05 104.643 187.209 104.759C187.369 104.875 187.487 105.038 187.548 105.226C187.609 105.413 187.609 105.615 187.548 105.803C187.488 105.99 187.369 106.154 187.209 106.27L185.887 107.23C185.777 107.31 185.695 107.423 185.653 107.552C185.611 107.681 185.611 107.82 185.653 107.949L186.159 109.504C186.222 109.691 186.223 109.894 186.162 110.082C186.101 110.27 185.981 110.433 185.819 110.547C185.66 110.665 185.468 110.728 185.271 110.729Z" fill="#6C63FF"/>
<path d="M190.327 107.621C190.701 107.359 191.012 107.019 191.24 106.623C191.467 106.228 191.606 105.787 191.644 105.333C191.683 104.878 191.622 104.421 191.465 103.992C191.308 103.564 191.059 103.175 190.736 102.853L192.994 75.5835L186.27 76.5084L186.142 103.004C185.638 103.583 185.364 104.327 185.371 105.095C185.379 105.863 185.668 106.602 186.184 107.171C186.7 107.74 187.406 108.1 188.17 108.183C188.934 108.266 189.701 108.066 190.327 107.621Z" fill="#A0616A"/>
<path d="M193.434 79.5106C193.309 79.5105 193.183 79.4924 193.063 79.4566L185.845 77.3338C185.671 77.2828 185.51 77.1963 185.372 77.0799C185.233 76.9635 185.121 76.8196 185.041 76.6574C184.961 76.4951 184.915 76.3181 184.908 76.1374C184.9 75.9568 184.929 75.7764 184.994 75.6078L187.666 68.7072C187.777 68.4157 187.989 68.1741 188.264 68.0263C188.539 67.8785 188.858 67.8344 189.162 67.9021L193.931 68.9387C194.229 69.0035 194.494 69.1702 194.682 69.41C194.87 69.6498 194.968 69.9477 194.96 70.2522L194.738 78.2388C194.729 78.5786 194.587 78.9013 194.344 79.1387C194.101 79.3761 193.774 79.5094 193.434 79.5106Z" fill="#CCCCCC"/>
<path d="M125.497 113.587H2.03352C1.49438 113.586 0.9775 113.372 0.596272 112.991C0.215044 112.609 0.000605124 112.092 0 111.553V74.6595C0.000605124 74.1204 0.215044 73.6035 0.596272 73.2222C0.9775 72.841 1.49438 72.6266 2.03352 72.626H125.497C126.036 72.6266 126.553 72.841 126.935 73.2222C127.316 73.6035 127.53 74.1204 127.531 74.6595V111.553C127.53 112.092 127.316 112.609 126.935 112.991C126.553 113.372 126.036 113.586 125.497 113.587ZM2.03352 73.207C1.64843 73.2074 1.27924 73.3606 1.00693 73.6329C0.73463 73.9052 0.581452 74.2744 0.581006 74.6595V111.553C0.581452 111.938 0.73463 112.308 1.00693 112.58C1.27924 112.852 1.64843 113.005 2.03352 113.006H125.497C125.882 113.005 126.252 112.852 126.524 112.58C126.796 112.308 126.949 111.938 126.95 111.553V74.6595C126.949 74.2744 126.796 73.9052 126.524 73.6329C126.252 73.3606 125.882 73.2074 125.497 73.207H2.03352Z" fill="#3F3D56"/>
<path d="M56.0598 129.121C55.8178 129.12 55.5823 129.042 55.3876 128.899L53.7676 127.722C53.6332 127.624 53.4711 127.571 53.3046 127.571C53.1382 127.571 52.9761 127.624 52.8417 127.722L51.2217 128.899C51.0263 129.041 50.791 129.117 50.5495 129.117C50.3081 129.117 50.0728 129.041 49.8774 128.899C49.682 128.757 49.5366 128.557 49.4619 128.327C49.3873 128.097 49.3872 127.85 49.4618 127.62L50.0806 125.716C50.1324 125.558 50.1325 125.387 50.0811 125.229C50.0297 125.071 49.9293 124.933 49.7945 124.835L48.1745 123.658C47.9792 123.516 47.8337 123.316 47.7591 123.086C47.6845 122.857 47.6845 122.609 47.7591 122.38C47.8337 122.15 47.9791 121.95 48.1745 121.808C48.3699 121.666 48.6052 121.589 48.8467 121.589H50.8491C51.0155 121.59 51.1777 121.537 51.3124 121.439C51.447 121.342 51.5471 121.204 51.5982 121.045L52.2169 119.141C52.2916 118.911 52.437 118.711 52.6324 118.569C52.8278 118.427 53.0631 118.351 53.3046 118.351C53.5461 118.351 53.7815 118.427 53.9769 118.569C54.1722 118.711 54.3177 118.911 54.3923 119.141L55.011 121.045C55.0621 121.204 55.1622 121.342 55.2969 121.439C55.4315 121.537 55.5937 121.59 55.7601 121.589H57.7625C58.004 121.589 58.2393 121.666 58.4347 121.808C58.6301 121.95 58.7755 122.15 58.8501 122.38C58.9247 122.609 58.9247 122.857 58.8501 123.086C58.7755 123.316 58.6301 123.516 58.4347 123.658L56.8147 124.835C56.6799 124.933 56.5796 125.071 56.5281 125.229C56.4767 125.387 56.4769 125.558 56.5286 125.716L57.1474 127.62C57.2248 127.85 57.2261 128.098 57.1513 128.328C57.0764 128.559 56.9294 128.759 56.7319 128.899C56.5372 129.042 56.3018 129.12 56.0598 129.121Z" fill="#6C63FF"/>
<path d="M72.4738 129.121C72.2317 129.12 71.9963 129.042 71.8015 128.899L70.1816 127.722C70.0472 127.624 69.885 127.571 69.7186 127.571C69.5522 127.571 69.3901 127.624 69.2556 127.722L67.6357 128.899C67.4403 129.041 67.205 129.117 66.9635 129.117C66.722 129.117 66.4867 129.041 66.2914 128.899C66.096 128.757 65.9505 128.557 65.8759 128.327C65.8012 128.097 65.8012 127.85 65.8758 127.62L66.4946 125.716C66.5463 125.558 66.5465 125.387 66.4951 125.229C66.4437 125.071 66.3433 124.933 66.2085 124.835L64.5885 123.658C64.3932 123.516 64.2478 123.316 64.1731 123.086C64.0985 122.857 64.0985 122.609 64.1732 122.38C64.2478 122.15 64.3932 121.95 64.5886 121.808C64.784 121.666 65.0193 121.589 65.2607 121.589H67.2631C67.4295 121.59 67.5917 121.537 67.7263 121.439C67.861 121.342 67.9611 121.204 68.0122 121.045L68.631 119.141C68.7056 118.911 68.851 118.711 69.0464 118.569C69.2418 118.427 69.4771 118.351 69.7186 118.351C69.9602 118.351 70.1955 118.427 70.3908 118.569C70.5862 118.711 70.7316 118.911 70.8063 119.141L71.425 121.045C71.4761 121.204 71.5762 121.342 71.7109 121.439C71.8455 121.537 72.0078 121.59 72.1742 121.589H74.1765C74.418 121.589 74.6533 121.666 74.8487 121.808C75.044 121.95 75.1895 122.15 75.2641 122.38C75.3387 122.609 75.3387 122.857 75.2641 123.086C75.1895 123.316 75.0441 123.516 74.8487 123.658L73.2288 124.835C73.0939 124.933 72.9936 125.071 72.9421 125.229C72.8907 125.387 72.8908 125.558 72.9426 125.716L73.5614 127.62C73.6387 127.85 73.6401 128.098 73.5652 128.328C73.4904 128.559 73.3434 128.759 73.1459 128.899C72.9512 129.042 72.7158 129.12 72.4738 129.121Z" fill="#6C63FF"/>
<path d="M88.8878 129.121C88.6458 129.12 88.4104 129.042 88.2157 128.899L86.5957 127.722C86.4612 127.624 86.2991 127.571 86.1327 127.571C85.9663 127.571 85.8042 127.624 85.6697 127.722L84.0497 128.899C83.8544 129.041 83.6191 129.117 83.3776 129.117C83.1361 129.117 82.9008 129.041 82.7054 128.899C82.5101 128.757 82.3646 128.557 82.29 128.327C82.2154 128.097 82.2153 127.85 82.29 127.62L82.9087 125.716C82.9604 125.558 82.9606 125.387 82.9091 125.229C82.8577 125.071 82.7574 124.933 82.6226 124.835L81.0026 123.658C80.8072 123.516 80.6618 123.316 80.5872 123.086C80.5126 122.857 80.5126 122.609 80.5872 122.38C80.6619 122.15 80.8073 121.95 81.0027 121.808C81.198 121.666 81.4333 121.589 81.6748 121.589H83.6772C83.8436 121.59 84.0058 121.537 84.1404 121.439C84.275 121.342 84.3751 121.204 84.4263 121.045L85.0451 119.141C85.1197 118.911 85.2651 118.711 85.4605 118.569C85.6559 118.427 85.8912 118.351 86.1327 118.351C86.3742 118.351 86.6095 118.427 86.8049 118.569C87.0003 118.711 87.1457 118.911 87.2203 119.141L87.8391 121.045C87.8903 121.204 87.9904 121.342 88.125 121.439C88.2596 121.537 88.4218 121.59 88.5882 121.589H90.5906C90.8321 121.589 91.0674 121.666 91.2628 121.808C91.4581 121.95 91.6035 122.15 91.6782 122.38C91.7528 122.609 91.7528 122.857 91.6782 123.086C91.6036 123.316 91.4582 123.516 91.2628 123.658L89.6428 124.835C89.508 124.933 89.4077 125.071 89.3563 125.229C89.3048 125.387 89.305 125.558 89.3567 125.716L89.9754 127.62C90.0528 127.85 90.0541 128.098 89.9793 128.328C89.9045 128.559 89.7575 128.759 89.56 128.899C89.3653 129.042 89.1298 129.12 88.8878 129.121Z" fill="#6C63FF"/>
<path d="M105.306 129.121C105.064 129.12 104.828 129.042 104.634 128.899L103.014 127.722C102.879 127.624 102.717 127.571 102.551 127.571C102.384 127.571 102.222 127.624 102.088 127.722L100.468 128.899C100.272 129.041 100.037 129.117 99.7957 129.117C99.5542 129.117 99.3189 129.041 99.1235 128.899C98.9281 128.757 98.7827 128.557 98.708 128.327C98.6334 128.097 98.6333 127.85 98.7079 127.62L99.3267 125.716C99.3785 125.558 99.3786 125.387 99.3272 125.229C99.2758 125.071 99.1754 124.933 99.0405 124.835L97.4205 123.658C97.2252 123.516 97.0798 123.316 97.0052 123.086C96.9306 122.857 96.9306 122.609 97.0052 122.38C97.0798 122.15 97.2252 121.95 97.4206 121.808C97.616 121.666 97.8513 121.589 98.0928 121.589H100.095C100.262 121.59 100.424 121.537 100.558 121.439C100.693 121.342 100.793 121.204 100.844 121.045L101.463 119.141C101.538 118.911 101.683 118.711 101.878 118.569C102.074 118.427 102.309 118.351 102.551 118.351C102.792 118.351 103.028 118.427 103.223 118.569C103.418 118.711 103.564 118.911 103.638 119.141L104.257 121.045C104.308 121.204 104.408 121.342 104.543 121.439C104.678 121.537 104.84 121.59 105.006 121.589H107.009C107.25 121.589 107.485 121.666 107.681 121.808C107.876 121.95 108.022 122.15 108.096 122.38C108.171 122.609 108.171 122.857 108.096 123.086C108.022 123.316 107.876 123.516 107.681 123.658L106.061 124.835C105.926 124.933 105.826 125.071 105.774 125.229C105.723 125.387 105.723 125.558 105.775 125.716L106.393 127.62C106.471 127.85 106.472 128.098 106.397 128.328C106.323 128.559 106.176 128.759 105.978 128.899C105.783 129.042 105.548 129.12 105.306 129.121Z" fill="#6C63FF"/>
<path d="M116.213 129.234C115.947 129.233 115.689 129.148 115.475 128.99C115.258 128.836 115.096 128.616 115.014 128.363C114.932 128.11 114.933 127.837 115.018 127.585L115.637 125.681C115.681 125.545 115.681 125.399 115.637 125.264C115.593 125.128 115.507 125.01 115.392 124.926L113.772 123.749C113.557 123.593 113.397 123.373 113.315 123.121C113.233 122.869 113.233 122.597 113.315 122.345C113.397 122.092 113.557 121.873 113.772 121.717C113.986 121.561 114.245 121.477 114.51 121.477H116.513C116.655 121.477 116.794 121.432 116.91 121.348C117.025 121.264 117.111 121.146 117.155 121.01L117.773 119.106C117.855 118.854 118.015 118.634 118.23 118.478C118.444 118.322 118.703 118.238 118.968 118.238C119.233 118.238 119.492 118.322 119.706 118.478C119.921 118.634 120.081 118.854 120.163 119.106L120.781 121.01C120.825 121.146 120.911 121.264 121.026 121.348C121.142 121.432 121.281 121.477 121.424 121.477H123.426C123.691 121.477 123.95 121.561 124.164 121.717C124.379 121.873 124.539 122.093 124.621 122.345C124.703 122.597 124.703 122.869 124.621 123.121C124.539 123.373 124.379 123.593 124.164 123.749L122.544 124.926C122.429 125.01 122.343 125.128 122.299 125.264C122.255 125.399 122.255 125.545 122.299 125.681L122.918 127.585C123 127.838 123 128.109 122.918 128.362C122.836 128.614 122.676 128.834 122.461 128.99C122.247 129.146 121.988 129.23 121.723 129.23C121.458 129.23 121.199 129.146 120.985 128.99L119.365 127.813C119.25 127.729 119.111 127.683 118.968 127.683C118.825 127.683 118.686 127.729 118.571 127.813L116.951 128.99C116.737 129.148 116.479 129.233 116.213 129.234ZM118.968 127.102C119.233 127.102 119.492 127.186 119.706 127.343L121.326 128.52C121.442 128.604 121.58 128.649 121.723 128.649C121.866 128.649 122.005 128.604 122.12 128.52C122.235 128.436 122.321 128.318 122.365 128.182C122.409 128.047 122.409 127.901 122.365 127.765L121.746 125.861C121.664 125.608 121.664 125.336 121.746 125.084C121.828 124.832 121.988 124.612 122.203 124.456L123.823 123.279C123.938 123.195 124.024 123.077 124.068 122.942C124.112 122.806 124.112 122.66 124.068 122.524C124.024 122.389 123.938 122.271 123.823 122.187C123.707 122.103 123.568 122.058 123.426 122.058H121.424C121.158 122.058 120.899 121.975 120.685 121.819C120.47 121.663 120.31 121.442 120.229 121.19L119.61 119.286C119.566 119.15 119.48 119.032 119.365 118.948C119.249 118.864 119.111 118.819 118.968 118.819C118.825 118.819 118.686 118.864 118.571 118.948C118.456 119.032 118.37 119.15 118.326 119.286L117.707 121.19C117.626 121.442 117.466 121.663 117.251 121.819C117.037 121.975 116.778 122.058 116.512 122.058H114.51C114.368 122.058 114.229 122.103 114.113 122.187C113.998 122.271 113.912 122.389 113.868 122.524C113.824 122.66 113.824 122.806 113.868 122.942C113.912 123.077 113.998 123.195 114.113 123.279L115.733 124.456C115.948 124.612 116.108 124.832 116.19 125.084C116.272 125.336 116.272 125.608 116.19 125.861L115.571 127.765C115.527 127.901 115.527 128.047 115.571 128.182C115.615 128.318 115.701 128.436 115.816 128.52C115.931 128.604 116.07 128.649 116.213 128.649C116.355 128.649 116.494 128.604 116.61 128.52L118.23 127.343C118.444 127.186 118.703 127.102 118.968 127.102Z" fill="#3F3D56"/>
<path d="M15.9781 81.3408C15.4773 81.3408 14.997 81.5398 14.6429 81.8939C14.2888 82.248 14.0898 82.7283 14.0898 83.2291C14.0898 83.7299 14.2888 84.2102 14.6429 84.5643C14.997 84.9184 15.4773 85.1174 15.9781 85.1174H111.554C112.054 85.1174 112.535 84.9184 112.889 84.5643C113.243 84.2102 113.442 83.7299 113.442 83.2291C113.442 82.7283 113.243 82.248 112.889 81.8939C112.535 81.5398 112.054 81.3408 111.554 81.3408H15.9781Z" fill="#CCCCCC"/>
<path d="M15.9781 91.2178C15.4773 91.2178 14.997 91.4167 14.6429 91.7708C14.2888 92.125 14.0898 92.6052 14.0898 93.106C14.0898 93.6068 14.2888 94.0871 14.6429 94.4412C14.997 94.7954 15.4773 94.9943 15.9781 94.9943H111.554C112.054 94.9943 112.535 94.7954 112.889 94.4412C113.243 94.0871 113.442 93.6068 113.442 93.106C113.442 92.6052 113.243 92.125 112.889 91.7708C112.535 91.4167 112.054 91.2178 111.554 91.2178H15.9781Z" fill="#CCCCCC"/>
<path d="M15.9781 101.095C15.4773 101.095 14.997 101.294 14.6429 101.648C14.2888 102.002 14.0898 102.483 14.0898 102.983C14.0898 103.484 14.2888 103.965 14.6429 104.319C14.997 104.673 15.4773 104.872 15.9781 104.872H111.554C112.054 104.872 112.535 104.673 112.889 104.319C113.243 103.965 113.442 103.484 113.442 102.983C113.442 102.483 113.243 102.002 112.889 101.648C112.535 101.294 112.054 101.095 111.554 101.095H15.9781Z" fill="#CCCCCC"/>
<path d="M15.9781 81.3408C15.4773 81.3408 14.997 81.5398 14.6429 81.8939C14.2888 82.248 14.0898 82.7283 14.0898 83.2291C14.0898 83.7299 14.2888 84.2102 14.6429 84.5643C14.997 84.9184 15.4773 85.1174 15.9781 85.1174H111.554C112.054 85.1174 112.535 84.9184 112.889 84.5643C113.243 84.2102 113.442 83.7299 113.442 83.2291C113.442 82.7283 113.243 82.248 112.889 81.8939C112.535 81.5398 112.054 81.3408 111.554 81.3408H15.9781Z" fill="#CCCCCC"/>
<path d="M15.9781 91.2178C15.4773 91.2178 14.997 91.4167 14.6429 91.7708C14.2888 92.125 14.0898 92.6052 14.0898 93.106C14.0898 93.6068 14.2888 94.0871 14.6429 94.4412C14.997 94.7954 15.4773 94.9943 15.9781 94.9943H111.554C112.054 94.9943 112.535 94.7954 112.889 94.4412C113.243 94.0871 113.442 93.6068 113.442 93.106C113.442 92.6052 113.243 92.125 112.889 91.7708C112.535 91.4167 112.054 91.2178 111.554 91.2178H15.9781Z" fill="#CCCCCC"/>
<path d="M15.9781 101.095C15.4773 101.095 14.997 101.294 14.6429 101.648C14.2888 102.002 14.0898 102.483 14.0898 102.983C14.0898 103.484 14.2888 103.965 14.6429 104.319C14.997 104.673 15.4773 104.872 15.9781 104.872H111.554C112.054 104.872 112.535 104.673 112.889 104.319C113.243 103.965 113.442 103.484 113.442 102.983C113.442 102.483 113.243 102.002 112.889 101.648C112.535 101.294 112.054 101.095 111.554 101.095H15.9781Z" fill="#CCCCCC"/>
<path d="M125.497 40.9609H2.03352C1.49438 40.9603 0.9775 40.7458 0.596272 40.3646C0.215044 39.9834 0.000605124 39.4665 0 38.9274V2.03352C0.000605124 1.49438 0.215044 0.9775 0.596272 0.596272C0.9775 0.215044 1.49438 0.000605124 2.03352 0H125.497C126.036 0.000604357 126.553 0.215044 126.935 0.596272C127.316 0.9775 127.53 1.49438 127.531 2.03352V38.9274C127.53 39.4665 127.316 39.9834 126.935 40.3646C126.553 40.7458 126.036 40.9603 125.497 40.9609ZM2.03352 0.581006C1.64843 0.581452 1.27924 0.734625 1.00693 1.00693C0.73463 1.27923 0.581452 1.64843 0.581006 2.03352V38.9274C0.581452 39.3125 0.73463 39.6817 1.00693 39.954C1.27924 40.2263 1.64843 40.3794 2.03352 40.3799H125.497C125.882 40.3794 126.252 40.2263 126.524 39.954C126.796 39.6817 126.949 39.3125 126.95 38.9274V2.03352C126.949 1.64842 126.796 1.27923 126.524 1.00692C126.252 0.73462 125.882 0.581445 125.497 0.581006H2.03352Z" fill="#3F3D56"/>
<path d="M56.0598 56.4959C55.8178 56.4949 55.5823 56.4169 55.3876 56.2733L53.7676 55.0963C53.6332 54.9982 53.4711 54.9453 53.3046 54.9453C53.1382 54.9453 52.9761 54.9982 52.8417 55.0963L51.2217 56.2733C51.0263 56.4152 50.791 56.4917 50.5495 56.4917C50.3081 56.4917 50.0728 56.4153 49.8774 56.2733C49.682 56.1314 49.5366 55.9313 49.4619 55.7016C49.3873 55.4719 49.3872 55.2245 49.4618 54.9948L50.0806 53.0905C50.1324 52.9323 50.1325 52.7618 50.0811 52.6035C50.0297 52.4452 49.9293 52.3073 49.7945 52.2097L48.1745 51.0327C47.9792 50.8908 47.8337 50.6906 47.7591 50.4609C47.6845 50.2313 47.6845 49.9839 47.7591 49.7542C47.8337 49.5245 47.9791 49.3243 48.1745 49.1824C48.3699 49.0404 48.6052 48.964 48.8467 48.964H50.8491C51.0155 48.9643 51.1777 48.9118 51.3124 48.8139C51.447 48.7161 51.5471 48.5781 51.5982 48.4197L52.2169 46.5154C52.2916 46.2857 52.437 46.0855 52.6324 45.9435C52.8278 45.8016 53.0631 45.7251 53.3046 45.7251C53.5461 45.7251 53.7815 45.8016 53.9769 45.9435C54.1722 46.0855 54.3177 46.2857 54.3923 46.5154L55.011 48.4197C55.0621 48.5781 55.1622 48.7161 55.2969 48.8139C55.4315 48.9118 55.5937 48.9643 55.7601 48.964H57.7625C58.004 48.964 58.2393 49.0405 58.4347 49.1824C58.6301 49.3244 58.7755 49.5245 58.8501 49.7542C58.9247 49.9839 58.9247 50.2313 58.8501 50.4609C58.7755 50.6906 58.6301 50.8908 58.4347 51.0327L56.8147 52.2097C56.6799 52.3073 56.5796 52.4452 56.5281 52.6035C56.4767 52.7618 56.4769 52.9323 56.5286 53.0905L57.1474 54.9948C57.2248 55.2243 57.2261 55.4725 57.1513 55.7028C57.0764 55.9331 56.9294 56.1331 56.7319 56.2733C56.5372 56.4169 56.3018 56.4949 56.0598 56.4959Z" fill="#6C63FF"/>
<path d="M72.4738 56.4959C72.2317 56.4949 71.9963 56.4169 71.8015 56.2733L70.1816 55.0963C70.0472 54.9982 69.885 54.9453 69.7186 54.9453C69.5522 54.9453 69.3901 54.9982 69.2556 55.0963L67.6357 56.2733C67.4403 56.4152 67.205 56.4917 66.9635 56.4917C66.722 56.4917 66.4867 56.4153 66.2914 56.2733C66.096 56.1314 65.9505 55.9313 65.8759 55.7016C65.8012 55.4719 65.8012 55.2245 65.8758 54.9948L66.4946 53.0905C66.5463 52.9323 66.5465 52.7618 66.4951 52.6035C66.4437 52.4452 66.3433 52.3073 66.2085 52.2097L64.5885 51.0327C64.3932 50.8908 64.2478 50.6906 64.1731 50.4609C64.0985 50.2312 64.0985 49.9838 64.1732 49.7542C64.2478 49.5245 64.3932 49.3243 64.5886 49.1824C64.784 49.0405 65.0193 48.964 65.2607 48.964H67.2631C67.4295 48.9643 67.5917 48.9118 67.7263 48.8139C67.861 48.7161 67.9611 48.5781 68.0122 48.4197L68.631 46.5154C68.7056 46.2857 68.851 46.0855 69.0464 45.9435C69.2418 45.8016 69.4771 45.7251 69.7186 45.7251C69.9602 45.7251 70.1955 45.8016 70.3908 45.9435C70.5862 46.0855 70.7316 46.2857 70.8063 46.5154L71.425 48.4197C71.4761 48.5781 71.5762 48.7161 71.7109 48.814C71.8455 48.9118 72.0078 48.9643 72.1742 48.964H74.1765C74.418 48.964 74.6533 49.0405 74.8487 49.1824C75.044 49.3243 75.1895 49.5245 75.2641 49.7542C75.3387 49.9838 75.3387 50.2312 75.2641 50.4609C75.1895 50.6906 75.0441 50.8908 74.8487 51.0327L73.2288 52.2097C73.0939 52.3072 72.9936 52.4451 72.9421 52.6034C72.8907 52.7617 72.8908 52.9323 72.9426 53.0905L73.5614 54.9948C73.6387 55.2243 73.6401 55.4725 73.5652 55.7028C73.4904 55.9331 73.3434 56.1331 73.1459 56.2733C72.9512 56.4169 72.7158 56.4949 72.4738 56.4959Z" fill="#6C63FF"/>
<path d="M88.8878 56.4959C88.6458 56.4949 88.4104 56.4169 88.2157 56.2733L86.5957 55.0963C86.4612 54.9984 86.2991 54.9457 86.1327 54.9457C85.9663 54.9457 85.8042 54.9984 85.6697 55.0963L84.0497 56.2733C83.8544 56.4152 83.6191 56.4917 83.3776 56.4917C83.1361 56.4917 82.9008 56.4153 82.7054 56.2733C82.5101 56.1314 82.3646 55.9312 82.29 55.7016C82.2154 55.4719 82.2153 55.2245 82.29 54.9948L82.9087 53.0905C82.9604 52.9323 82.9606 52.7618 82.9091 52.6035C82.8577 52.4452 82.7574 52.3073 82.6226 52.2097L81.0026 51.0327C80.8072 50.8908 80.6618 50.6906 80.5872 50.4609C80.5126 50.2312 80.5126 49.9838 80.5872 49.7542C80.6619 49.5245 80.8073 49.3243 81.0027 49.1824C81.198 49.0405 81.4333 48.964 81.6748 48.964H83.6772C83.8436 48.9643 84.0058 48.9118 84.1404 48.8139C84.275 48.7161 84.3751 48.5781 84.4263 48.4197L85.0451 46.5154C85.1197 46.2857 85.2651 46.0855 85.4605 45.9435C85.6559 45.8016 85.8912 45.7251 86.1327 45.7251C86.3742 45.7251 86.6095 45.8016 86.8049 45.9435C87.0003 46.0855 87.1457 46.2857 87.2203 46.5154L87.8391 48.4197C87.8903 48.5781 87.9904 48.7161 88.125 48.8139C88.2596 48.9118 88.4218 48.9643 88.5882 48.964H90.5906C90.8321 48.964 91.0674 49.0405 91.2628 49.1824C91.4581 49.3243 91.6035 49.5245 91.6782 49.7542C91.7528 49.9838 91.7528 50.2312 91.6782 50.4609C91.6036 50.6906 91.4582 50.8908 91.2628 51.0327L89.6428 52.2097C89.508 52.3073 89.4077 52.4452 89.3563 52.6035C89.3048 52.7618 89.305 52.9323 89.3567 53.0905L89.9754 54.9948C90.0528 55.2243 90.0541 55.4725 89.9793 55.7028C89.9045 55.9331 89.7575 56.1331 89.56 56.2733C89.3653 56.4169 89.1298 56.4949 88.8878 56.4959Z" fill="#6C63FF"/>
<path d="M116.213 56.6085C115.947 56.6074 115.689 56.5218 115.475 56.3642C115.258 56.2102 115.096 55.9904 115.014 55.7374C114.932 55.4845 114.933 55.2117 115.018 54.9596L115.637 53.0553C115.681 52.9198 115.681 52.7736 115.637 52.638C115.593 52.5023 115.507 52.3842 115.392 52.3006L113.772 51.1235C113.557 50.9676 113.397 50.7477 113.315 50.4954C113.233 50.2431 113.233 49.9714 113.315 49.7191C113.397 49.4668 113.557 49.2469 113.772 49.091C113.986 48.9351 114.245 48.8511 114.51 48.8511H116.513C116.655 48.8514 116.794 48.8063 116.91 48.7225C117.025 48.6386 117.111 48.5203 117.155 48.3846L117.773 46.4803C117.855 46.228 118.015 46.0081 118.23 45.8522C118.444 45.6963 118.703 45.6123 118.968 45.6123C119.233 45.6123 119.492 45.6963 119.706 45.8522C119.921 46.0081 120.081 46.228 120.163 46.4803L120.781 48.3846C120.825 48.5203 120.911 48.6386 121.026 48.7225C121.142 48.8063 121.281 48.8514 121.424 48.8511H123.426C123.691 48.8511 123.95 48.9351 124.164 49.091C124.379 49.247 124.539 49.4668 124.621 49.7191C124.703 49.9714 124.703 50.2431 124.621 50.4954C124.539 50.7477 124.379 50.9676 124.164 51.1235L122.544 52.3006C122.429 52.3842 122.343 52.5023 122.299 52.6379C122.255 52.7736 122.255 52.9197 122.299 53.0553L122.918 54.9596C123 55.2119 123 55.4837 122.918 55.736C122.836 55.9883 122.676 56.2081 122.461 56.364C122.247 56.52 121.988 56.6039 121.723 56.6039C121.458 56.6039 121.199 56.52 120.985 56.364L119.365 55.1871C119.25 55.1031 119.111 55.0578 118.968 55.0578C118.825 55.0578 118.686 55.1031 118.571 55.1871L116.951 56.364C116.737 56.5218 116.479 56.6074 116.213 56.6085ZM118.968 54.4765C119.233 54.4765 119.492 54.5608 119.706 54.7171L121.326 55.894C121.442 55.9778 121.58 56.023 121.723 56.023C121.866 56.023 122.005 55.9779 122.12 55.8941C122.235 55.8103 122.321 55.6921 122.365 55.5565C122.409 55.4209 122.409 55.2748 122.365 55.1392L121.746 53.2349C121.664 52.9827 121.664 52.7107 121.746 52.4583C121.828 52.2059 121.988 51.9861 122.203 51.8305L123.823 50.6534C123.938 50.5696 124.024 50.4515 124.068 50.3159C124.112 50.1803 124.112 50.0342 124.068 49.8986C124.024 49.763 123.938 49.6449 123.823 49.5611C123.707 49.4773 123.568 49.4321 123.426 49.4321H121.424C121.158 49.4326 120.899 49.3488 120.685 49.1928C120.47 49.0369 120.31 48.8167 120.229 48.5642L119.61 46.6599C119.566 46.5243 119.48 46.4061 119.365 46.3223C119.249 46.2385 119.111 46.1933 118.968 46.1933C118.825 46.1933 118.686 46.2385 118.571 46.3223C118.456 46.4061 118.37 46.5243 118.326 46.6599L117.707 48.5642C117.626 48.8167 117.466 49.0369 117.251 49.1929C117.037 49.3488 116.778 49.4326 116.512 49.4321H114.51C114.368 49.4321 114.229 49.4772 114.113 49.561C113.998 49.6448 113.912 49.763 113.868 49.8986C113.824 50.0342 113.824 50.1803 113.868 50.3159C113.912 50.4515 113.998 50.5696 114.113 50.6534L115.733 51.8305C115.948 51.9861 116.108 52.2059 116.19 52.4583C116.272 52.7107 116.272 52.9827 116.19 53.2349L115.571 55.1392C115.527 55.2748 115.527 55.4209 115.571 55.5565C115.615 55.6921 115.701 55.8102 115.816 55.894C115.931 55.9778 116.07 56.0229 116.213 56.0229C116.355 56.0229 116.494 55.9778 116.61 55.894L118.23 54.7171C118.444 54.5608 118.703 54.4765 118.968 54.4765Z" fill="#3F3D56"/>
<path d="M99.6542 56.5616C99.3885 56.5605 99.13 56.475 98.916 56.3173C98.6991 56.1633 98.5375 55.9435 98.4553 55.6906C98.3731 55.4376 98.3746 55.1648 98.4595 54.9127L99.0784 53.0084C99.1227 52.8729 99.1228 52.7267 99.0788 52.5911C99.0347 52.4554 98.9487 52.3373 98.8332 52.2537L97.2131 51.0766C96.9985 50.9207 96.8388 50.7008 96.7568 50.4485C96.6748 50.1962 96.6748 49.9245 96.7568 49.6722C96.8388 49.4199 96.9985 49.2 97.2131 49.0441C97.4278 48.8882 97.6862 48.8042 97.9515 48.8042H99.9539C100.097 48.8045 100.236 48.7595 100.351 48.6756C100.466 48.5918 100.552 48.4734 100.596 48.3377L101.215 46.4334C101.297 46.1811 101.457 45.9612 101.671 45.8053C101.886 45.6494 102.144 45.5654 102.409 45.5654C102.675 45.5654 102.933 45.6494 103.148 45.8053C103.362 45.9612 103.522 46.1811 103.604 46.4334L104.223 48.3377C104.267 48.4734 104.352 48.5917 104.468 48.6756C104.583 48.7594 104.722 48.8045 104.865 48.8042H106.867C107.133 48.8042 107.391 48.8882 107.606 49.0441C107.82 49.2001 107.98 49.4199 108.062 49.6722C108.144 49.9245 108.144 50.1962 108.062 50.4485C107.98 50.7008 107.82 50.9207 107.606 51.0766L105.986 52.2537C105.87 52.3373 105.784 52.4554 105.74 52.5911C105.696 52.7267 105.696 52.8729 105.74 53.0084L106.359 54.9127C106.441 55.165 106.441 55.4368 106.359 55.6891C106.277 55.9414 106.117 56.1612 105.903 56.3172C105.688 56.4731 105.43 56.5571 105.164 56.5571C104.899 56.5571 104.641 56.4731 104.426 56.3172L102.806 55.1403C102.691 55.0562 102.552 55.0109 102.409 55.0109C102.267 55.0109 102.128 55.0562 102.013 55.1403L100.393 56.3172C100.179 56.4749 99.9201 56.5605 99.6542 56.5616ZM102.409 54.4296C102.675 54.4296 102.933 54.5139 103.148 54.6702L104.768 55.8471C104.883 55.9309 105.022 55.9761 105.164 55.9761C105.307 55.9761 105.446 55.931 105.561 55.8472C105.677 55.7634 105.763 55.6452 105.807 55.5096C105.851 55.374 105.851 55.2279 105.807 55.0923L105.188 53.188C105.105 52.9358 105.105 52.6638 105.187 52.4114C105.269 52.159 105.429 51.9392 105.644 51.7836L107.264 50.6065C107.379 50.5227 107.465 50.4046 107.509 50.269C107.553 50.1334 107.553 49.9873 107.509 49.8517C107.465 49.7161 107.379 49.598 107.264 49.5142C107.149 49.4304 107.01 49.3852 106.867 49.3852H104.865C104.6 49.3857 104.341 49.3019 104.126 49.146C103.911 48.99 103.752 48.7698 103.67 48.5173L103.051 46.613C103.007 46.4774 102.922 46.3592 102.806 46.2754C102.691 46.1916 102.552 46.1464 102.409 46.1464C102.267 46.1464 102.128 46.1916 102.012 46.2754C101.897 46.3592 101.811 46.4774 101.767 46.613L101.148 48.5173C101.067 48.7698 100.907 48.99 100.693 49.146C100.478 49.3019 100.219 49.3857 99.9539 49.3852H97.9515C97.8089 49.3852 97.67 49.4304 97.5547 49.5142C97.4393 49.598 97.3535 49.7161 97.3094 49.8517C97.2653 49.9873 97.2653 50.1334 97.3094 50.269C97.3534 50.4046 97.4393 50.5227 97.5546 50.6065L99.1747 51.7836C99.3896 51.9392 99.5497 52.159 99.6317 52.4114C99.7137 52.6638 99.7134 52.9358 99.631 53.188L99.0121 55.0923C98.968 55.2279 98.9681 55.374 99.0121 55.5096C99.0562 55.6452 99.142 55.7633 99.2574 55.8471C99.3727 55.9309 99.5117 55.9761 99.6542 55.976C99.7968 55.976 99.9357 55.9309 100.051 55.8471L101.671 54.6702C101.886 54.5139 102.144 54.4297 102.409 54.4296Z" fill="#3F3D56"/>
<path d="M15.9781 8.71533C15.4773 8.71533 14.997 8.91427 14.6429 9.26839C14.2888 9.62251 14.0898 10.1028 14.0898 10.6036C14.0898 11.1044 14.2888 11.5847 14.6429 11.9388C14.997 12.2929 15.4773 12.4919 15.9781 12.4919H111.554C112.054 12.4919 112.535 12.2929 112.889 11.9388C113.243 11.5847 113.442 11.1044 113.442 10.6036C113.442 10.1028 113.243 9.62251 112.889 9.26839C112.535 8.91427 112.054 8.71533 111.554 8.71533H15.9781Z" fill="#CCCCCC"/>
<path d="M15.9781 18.5923C15.4773 18.5923 14.997 18.7912 14.6429 19.1453C14.2888 19.4995 14.0898 19.9798 14.0898 20.4806C14.0898 20.9814 14.2888 21.4616 14.6429 21.8158C14.997 22.1699 15.4773 22.3688 15.9781 22.3688H111.554C112.054 22.3688 112.535 22.1699 112.889 21.8158C113.243 21.4616 113.442 20.9814 113.442 20.4806C113.442 19.9798 113.243 19.4995 112.889 19.1453C112.535 18.7912 112.054 18.5923 111.554 18.5923H15.9781Z" fill="#CCCCCC"/>
<path d="M15.9781 28.4692C15.4773 28.4692 14.997 28.6682 14.6429 29.0223C14.2888 29.3764 14.0898 29.8567 14.0898 30.3575C14.0898 30.8583 14.2888 31.3386 14.6429 31.6927C14.997 32.0468 15.4773 32.2458 15.9781 32.2458H111.554C112.054 32.2458 112.535 32.0468 112.889 31.6927C113.243 31.3386 113.442 30.8583 113.442 30.3575C113.442 29.8567 113.243 29.3764 112.889 29.0223C112.535 28.6682 112.054 28.4692 111.554 28.4692H15.9781Z" fill="#CCCCCC"/>
<path d="M15.9781 8.71533C15.4773 8.71533 14.997 8.91427 14.6429 9.26839C14.2888 9.62251 14.0898 10.1028 14.0898 10.6036C14.0898 11.1044 14.2888 11.5847 14.6429 11.9388C14.997 12.2929 15.4773 12.4919 15.9781 12.4919H111.554C112.054 12.4919 112.535 12.2929 112.889 11.9388C113.243 11.5847 113.442 11.1044 113.442 10.6036C113.442 10.1028 113.243 9.62251 112.889 9.26839C112.535 8.91427 112.054 8.71533 111.554 8.71533H15.9781Z" fill="#CCCCCC"/>
<path d="M15.9781 18.5923C15.4773 18.5923 14.997 18.7912 14.6429 19.1453C14.2888 19.4995 14.0898 19.9798 14.0898 20.4806C14.0898 20.9814 14.2888 21.4616 14.6429 21.8158C14.997 22.1699 15.4773 22.3688 15.9781 22.3688H111.554C112.054 22.3688 112.535 22.1699 112.889 21.8158C113.243 21.4616 113.442 20.9814 113.442 20.4806C113.442 19.9798 113.243 19.4995 112.889 19.1453C112.535 18.7912 112.054 18.5923 111.554 18.5923H15.9781Z" fill="#CCCCCC"/>
<path d="M15.9781 28.4692C15.4773 28.4692 14.997 28.6682 14.6429 29.0223C14.2888 29.3764 14.0898 29.8567 14.0898 30.3575C14.0898 30.8583 14.2888 31.3386 14.6429 31.6927C14.997 32.0468 15.4773 32.2458 15.9781 32.2458H111.554C112.054 32.2458 112.535 32.0468 112.889 31.6927C113.243 31.3386 113.442 30.8583 113.442 30.3575C113.442 29.8567 113.243 29.3764 112.889 29.0223C112.535 28.6682 112.054 28.4692 111.554 28.4692H15.9781Z" fill="#CCCCCC"/>
</g>
<defs>
<clipPath id="clip0_909_33634">
<rect width="232.97" height="156" fill="white"/>
</clipPath>
</defs>
</svg>
