<svg xmlns="http://www.w3.org/2000/svg"  viewBox="0 0 64 64" width="64px" height="64px"><linearGradient id="WTYAzOLwN2dJflQ9JW~tUa" x1="32" x2="32" y1="3" y2="62.327" gradientUnits="userSpaceOnUse" spreadMethod="reflect"><stop offset="0" stop-color="#D9E021"/><stop offset="1" stop-color="#FB872B"/></linearGradient><path fill="none" stroke="url(#WTYAzOLwN2dJflQ9JW~tUa)" stroke-miterlimit="10" stroke-width="2" d="M32,53.714C18.329,53.714,7,42.671,7,29 S18.329,4,32,4s25,11.329,25,25s-8.152,27.167-25,32V53.714z"/><linearGradient id="WTYAzOLwN2dJflQ9JW~tUb" x1="40.5" x2="40.5" y1="21" y2="40" gradientUnits="userSpaceOnUse" spreadMethod="reflect"><stop offset="0" stop-color="#eaee83"/><stop offset="1" stop-color="#fdc599"/></linearGradient><path fill="url(#WTYAzOLwN2dJflQ9JW~tUb)" d="M44,21h-7c-1.105,0-2,0.895-2,2v7.001c0,1.104,0.895,1.999,1.999,2L40,32h2 c0,2.206-1.794,4-4,4v4c4.411,0,8-3.589,8-8v-9C46,21.895,45.105,21,44,21z"/><linearGradient id="WTYAzOLwN2dJflQ9JW~tUc" x1="23.5" x2="23.5" y1="21" y2="40" gradientUnits="userSpaceOnUse" spreadMethod="reflect"><stop offset="0" stop-color="#eaee83"/><stop offset="1" stop-color="#fdc599"/></linearGradient><path fill="url(#WTYAzOLwN2dJflQ9JW~tUc)" d="M27,21h-7c-1.105,0-2,0.895-2,2v7.001c0,1.104,0.895,1.999,1.999,2L23,32h2 c0,2.206-1.794,4-4,4v4c4.411,0,8-3.589,8-8v-9C29,21.895,28.105,21,27,21z"/></svg>